<?xml version="1.0" encoding="UTF-8"?>
<!DOCTYPE svg PUBLIC "-//W3C//DTD SVG 1.1//EN" "http://www.w3.org/Graphics/SVG/1.1/DTD/svg11.dtd">
<!-- Creator: CorelDRAW -->
<svg xmlns="http://www.w3.org/2000/svg" xml:space="preserve" width="210mm" height="55.3777mm" version="1.1" style="shape-rendering:geometricPrecision; text-rendering:geometricPrecision; image-rendering:optimizeQuality; fill-rule:evenodd; clip-rule:evenodd"
viewBox="0 0 21009.74 5540.34"
 xmlns:xlink="http://www.w3.org/1999/xlink"
 xmlns:xodm="http://www.corel.com/coreldraw/odm/2003">
 <defs>
  <style type="text/css">
   <![CDATA[
    .str0 {stroke:#D4A946;stroke-width:48.29;stroke-miterlimit:10}
    .fil2 {fill:none;fill-rule:nonzero}
    .fil0 {fill:#D4A946}
    .fil1 {fill:#D4A946;fill-rule:nonzero}
   ]]>
  </style>
 </defs>
 <g id="Layer_x0020_1">
  <metadata id="CorelCorpID_0Corel-Layer"/>
  <path class="fil0" d="M-0 2743.86c0,-1515.45 1228.62,-2743.86 2743.9,-2743.86 1515.41,0 2743.86,1228.41 2743.86,2743.86 0,1515.41 -1228.45,2743.99 -2743.86,2743.99 -1515.28,0 -2743.9,-1228.58 -2743.9,-2743.99zm2743.9 -2664.04c1471.36,0 2664,1192.64 2664,2664.04 0,1471.35 -1192.64,2664.04 -2664,2664.04 -1471.4,0 -2664.21,-1192.69 -2664.21,-2664.04 0,-1471.4 1192.81,-2664.04 2664.21,-2664.04z"/>
  <path class="fil0" d="M866.93 2743.86c0,-1036.65 840.19,-1876.98 1876.8,-1876.98 1036.82,0 1877.15,840.33 1877.15,1876.98 0,1036.65 -840.33,1876.97 -1877.15,1876.97 -1036.61,0 -1876.8,-840.32 -1876.8,-1876.97zm1876.8 -1804.56c996.83,0 1804.57,808.02 1804.57,1804.56 0,996.66 -807.73,1804.52 -1804.57,1804.52 -996.49,0 -1804.52,-807.85 -1804.52,-1804.52 0,-996.53 808.02,-1804.56 1804.52,-1804.56z"/>
  <polygon class="fil1" points="4151.1,4734.48 3992.07,4725.12 3941.22,4875.85 3893.99,4719.26 3734.92,4710.02 3864.69,4622.5 3817.17,4465.74 3944.81,4568.36 4074.45,4480.84 4023.42,4631.88 "/>
  <polygon class="fil1" points="1326.69,4734.48 1485.56,4725.12 1536.58,4875.85 1583.8,4719.26 1742.84,4710.02 1613.07,4622.5 1660.63,4465.74 1532.95,4568.36 1403.35,4480.84 1454.2,4631.88 "/>
  <polygon class="fil0" points="955.94,4388.49 1015.69,4340.37 930.27,4234.72 1218.48,4001.43 1160.57,3929.79 872.19,4163.21 789.94,4061.49 730.36,4109.78 "/>
  <polygon class="fil0" points="1089.3,3827.35 1040.54,3749.21 964.5,3796.72 1013.26,3874.75 "/>
  <path class="fil0" d="M731.51 3451.76c19.16,-5.13 62.02,-20.53 102.44,32.12 8.17,10.56 14.98,22.32 19.04,33.96 4.83,12.07 6.93,23.7 6.8,36.36 -1.24,25.07 -11.94,51.16 -36.53,76.96 -20.96,21.72 -51.76,37.43 -81.96,48.46 -30.15,10.09 -59.76,15.53 -76.78,15.65 -40.89,0.77 -80.89,-18.22 -99.63,-55.82 -39.65,-80.59 11.17,-123.57 33.54,-135.2l-33.06 -81.49c-20.66,9.07 -73.01,33.5 -89.31,109.54 -12.71,52.23 0.72,95.21 12.66,124.82 43.46,107.57 124.35,132.46 211.26,124.64 26.09,-2.74 55.65,-11.34 83.58,-22.63 27.33,-11.04 52.05,-25.06 69.72,-37.42 78.62,-57.67 111.98,-145.95 71.68,-236.93 -22.32,-50.55 -60.52,-89.48 -89.78,-106.07 -37.3,-21.43 -94.61,-25.97 -137.04,-9.5l33.37 82.56z"/>
  <polygon class="fil0" points="824.62,3233.49 802.47,3144.01 715.38,3165.74 737.71,3255.22 "/>
  <path class="fil0" d="M183.19 2880.13l74.85 -2.56 -2.44 -67.46 -74.84 2.57 2.43 67.45zm131.57 -84.52l3.34 92.22 447.24 -15.7 -3.17 -92.05 -447.41 15.53z"/>
  <path class="fil0" d="M485.99 2310.91c-14.16,-5.43 -56.29,-4.4 -89.01,15.1 -60.22,36.49 -72.11,119.21 -75.14,143.04 -13.27,108.47 32.89,165.96 102.61,182.12 70.92,16 110.61,-19.33 133.11,-65.48 26.39,-54.8 37.26,-142.61 71.22,-168.1 24.72,-19.34 58.98,-10.73 74.8,10.99 9.54,12.84 15.27,42.56 11.94,73.36 -2.39,30.62 -13.14,62.62 -36.36,80.28 -17.67,13.27 -36.36,14.64 -47.99,13.27l-10.87 89.05c42.39,1.92 88.71,-12.11 122.08,-48.29 27.93,-29.89 42.26,-82.72 44.53,-105.18 5.42,-49.48 5.72,-102.02 -14.04,-142.74 -29.12,-60.1 -131.74,-96.75 -191.5,-52.09 -32.16,24.46 -49.48,75.63 -56.76,99.45 -5.09,16.6 -28.95,99.15 -41.32,108.22 -10.26,19.16 -17.67,28.65 -47.82,22.45 -36.1,-7.39 -47.26,-42.22 -41.23,-86.61 8.76,-62.75 45.42,-88.54 81.36,-82.98l10.38 -85.85z"/>
  <polygon class="fil0" points="379.02,2142.59 451.9,2166.29 493.99,2037.29 846.78,2151.97 875.15,2064.28 522.39,1949.77 562.81,1825.27 489.8,1801.56 "/>
  <path class="fil0" d="M719.27 1587.7l180.76 32.12 -55.7 100.48 -125.07 -132.6zm-68.35 -98.25l-51.62 92.94 316.01 353.39 45.55 -82.25 -63.22 -70.75 80.42 -145.17 93.24 16.6 45.6 -82.09 -465.98 -82.68z"/>
  <polygon class="fil0" points="844.51,1201.03 1171.98,1506.26 1234.73,1438.98 1006.59,1226.23 1358.18,1306.51 1420.2,1240.08 1092.9,934.68 1029.98,1002.13 1255.09,1211.89 906.41,1134.61 "/>
  <path class="fil0" d="M1484.23 952.26l92.65 -60.23c8.12,-5.43 47.99,-45.68 84.95,7.7 36.23,52.69 -7.1,79.56 -24.17,90.42l-90.68 58.99 -62.75 -96.88zm-97.48 -149.84l91.75 -59.62c26.85,-17.33 52.94,-19.89 75.75,11.64 18.1,24.89 10.69,53.88 -24.29,76.52l-87.56 56.89 -55.65 -85.42zm124.94 361.1l169.3 -110.01c23.7,-15.4 63.05,-46.03 74.55,-84.95 14.76,-50.56 1.79,-91.88 -23.1,-121.18 -25.66,-29.43 -62.62,-46.62 -95.68,-49.19 12.54,-40.29 0.17,-77.55 -14.63,-100.35 -6.2,-8.29 -30.79,-32.6 -39.69,-37.26 -17.5,-9.06 -33.33,-9.66 -38.93,-10.43 -38.03,-6.75 -89.48,17.84 -108.34,29.3l-167.51 108.64 244.02 375.42z"/>
  <path class="fil0" d="M2014.53 406.9l100.95 293.18c9.06,26.85 11.21,72.28 -57.92,95.97 -70.91,24.47 -93.11,-14.03 -103.51,-40.29l-100.95 -293.17 -87.09 29.85 100.65 292.15c14.21,41.79 48.89,85.71 132.51,100.47 26.22,0.77 57.02,-4.06 86.75,-14.33 29.55,-10.09 58.26,-26.56 80.41,-47.05 58.56,-58.56 48.59,-117.53 35.76,-154.66l-100.47 -292.02 -87.09 29.89z"/>
  <polygon class="fil0" points="2297.47,331.57 2359.63,774.88 2663.23,732.19 2652.54,656.14 2440.21,686.04 2388.63,318.75 "/>
  <path class="fil0" d="M3256.76 339.24l-48.42 306.34c-4.53,27.88 -24,68.95 -96.28,57.49 -73.91,-11.77 -75.58,-56.12 -72.41,-84.22l48.59 -306.3 -91.15 -14.33 -48.29 304.97c-6.92,43.76 3.04,98.68 70.02,151.03 22.8,12.97 52.35,23.1 83.28,28.23 30.96,4.79 63.86,3.76 93.28,-4.11 78.92,-24.12 97.92,-80.71 103.95,-119.64l48.46 -304.97 -91.02 -14.5zm-41.32 -138.97l-11.94 73.95 66.85 10.69 11.64 -74.08 -66.55 -10.56zm-124.65 56.17l66.86 10.56 11.59 -74.08 -66.68 -10.43 -11.77 73.95z"/>
  <polygon class="fil0" points="3570.96,426.37 3388.84,835.28 3473.02,872.7 3599.76,587.66 3638.42,946.32 3721.52,983.32 3903.53,574.36 3819.31,536.98 3694.24,818.08 3653.94,463.32 "/>
  <path class="fil0" d="M4129.28 554.99l-40.89 62.92 56.76 36.66 40.9 -62.75 -56.77 -36.83zm-6.32 156.33l-77.26 -50.26 -243.72 375.42 77.3 50.26 243.68 -375.42z"/>
  <polygon class="fil0" points="4458.47,986.01 4159.57,1171.3 4311.97,854.14 4243.15,792.12 4056.36,1226.4 4115.35,1279.22 4527.46,1048.03 "/>
  <polygon class="fil0" points="4644.87,1185.67 4282.75,1448.69 4479.35,1719.53 4541.36,1674.41 4398.93,1478.11 4492.34,1410.19 4618.18,1583.72 4680.34,1538.59 4554.37,1365.06 4636.88,1305.18 4773.28,1493.04 4835.47,1447.92 "/>
  <path class="fil0" d="M4908.82 1760.81l46.75 115.61c15.28,38.16 3.77,58.69 -25.79,70.62 -38.92,21.72 -74.55,-5.73 -82.55,-25.67l-47.22 -116.63 108.81 -43.93zm-378.46 53.42l34.57 85.54 164.04 -66.38 40.42 100.35c11.94,29.59 6.5,55.69 -20.83,68.05 -30.8,11.04 -63.69,24.29 -83.75,33.67 -13.27,6.79 -24.43,15.23 -34.27,27.16l37.13 91.57 15.4 -6.16c2.1,-11.51 4.36,-20.23 27.76,-29.72 20.83,-9.06 74.98,-32.29 91.15,-41.53 35.76,-19.77 34.86,-51.11 38.92,-69.25 27.63,21.13 48.12,34.09 88.28,29.89 39.83,-4.23 66.09,-24.76 82.09,-37.9 39.99,-30.02 42.39,-79.94 27.33,-122.37l-93.12 -230.55 -415.11 167.63z"/>
  <path class="fil0" d="M5051.43 2528.97c15.28,1.36 55.4,-11.3 81.49,-39.1 47.69,-51.75 36.53,-134.43 32.77,-158.13 -17.07,-107.87 -77.25,-150.56 -148.77,-146.67 -72.75,3.93 -100.99,48.89 -109.88,99.45 -10.39,59.93 3.33,147.27 -22.16,181.23 -18.56,25.36 -53.72,26.56 -75.02,9.96 -12.79,-9.66 -26.22,-36.83 -31.82,-66.98 -6.02,-30.2 -4.53,-63.99 12.97,-87.26 13.3,-17.63 30.96,-24.12 42.56,-26.09l-14.04 -88.41c-41.49,9.66 -81.91,35.89 -104.24,79.99 -18.56,36.49 -17.96,90.97 -13.6,113.3 8.17,49.19 22.5,99.75 52.65,133.41 44.52,49.48 153.3,56.55 198.59,-2.74 24,-32.42 26.56,-86.44 26.99,-111.33 0.47,-17.54 0.47,-103.22 9.83,-115.32 4.66,-21.26 9.02,-32.42 39.83,-34.86 36.96,-2.7 57.19,27.63 63.52,71.98 8.76,62.62 -19.3,97.49 -55.23,102.02l13.56 85.55z"/>
  <path class="fil0" d="M5326.72 2671.79l-74.84 1.37 1.19 67.45 74.85 -1.37 -1.2 -67.45zm-133.1 82.21l-1.63 -92.17 -447.41 7.69 1.33 92.18 447.71 -7.7z"/>
  <polygon class="fil0" points="5193.79,2892.54 5117.73,2881.98 5098.87,3016.24 4731.62,2964.78 4718.92,3055.94 5086.04,3107.56 5067.95,3237.04 5143.82,3247.72 "/>
  <polygon class="fil0" points="5101.09,3409.03 4677.86,3263.08 4569.04,3579.69 4641.5,3604.71 4720.54,3375.23 4829.66,3412.79 4759.81,3615.58 4832.52,3640.48 4902.24,3437.85 4998.66,3471.05 4923.07,3690.6 4995.65,3715.5 "/>
  <path class="fil0" d="M4606.55 4110.59c10.56,10.87 49.22,27.88 87.08,23.95 70.02,-7.65 115.87,-77.38 128.58,-97.78 57.79,-92.78 40.42,-164.47 -16.17,-208.35 -57.49,-44.7 -108.35,-29.43 -148.04,2.86 -47.35,38.45 -94.14,113.47 -135.93,122.38 -30.32,6.92 -57.66,-15.28 -63.09,-41.49 -3,-16 4.53,-45.3 20.1,-71.69 15.36,-26.73 38.63,-51.15 67.11,-57.36 21.6,-4.53 39.1,2.14 49.06,8.29l47.52 -76.05c-37.56,-19.76 -85.42,-26.56 -131.1,-8 -37.9,15.4 -73.18,57.07 -84.69,76.66 -25.92,42.43 -48.42,89.95 -47.65,135.2 1.03,66.73 78.45,143.38 151.63,128.11 39.4,-8.6 76.83,-47.52 93.41,-66.09 11.77,-12.96 68.05,-77.72 82.99,-80.71 17.49,-13.01 28.22,-18.57 53.12,-0.17 29.55,22.2 25.02,58.43 0.59,96.15 -34.39,52.94 -78.49,60.78 -108.64,40.72l-45.89 73.35z"/>
  <path class="fil0" d="M4699.58 4414.72l-55.56 -50.09 -45.26 50.09 55.7 50.25 45.12 -50.25zm-153.34 -30.63l61.73 -68.47 -332.69 -299.67 -61.72 68.65 332.68 299.49z"/>
  <path class="fil0" d="M2292.17 4732.73l-55.09 -14.8c-8,20.23 -29.73,34.73 -50.26,42.73 -24.59,9.02 -68.18,5.72 -98.68,-2.44l-14.63 55.22 100.95 27.03 -78.03 290.6 83.16 22.2 112.57 -420.54z"/>
  <path class="fil0" d="M2557.28 4869.78l-15.7 180.29 -112.71 -9.8 128.41 -170.49zm-6.33 -88.88l-182.89 251.51 -6.33 72.88 173.53 15.1 -8.16 95.51 85.54 7.57 8.47 -95.51 45.25 3.89 6.2 -70.32 -45.42 -3.89 23.52 -267.84 -99.71 -8.89z"/>
  <path class="fil0" d="M2792.45 5115.55c0.47,19.76 4.23,56.42 53.42,89.78 20.36,13.56 49.35,33.2 107.57,23.82 66.85,-10.68 99.62,-38.92 119.39,-78.32 36.96,-72.24 16.59,-200.52 -84.23,-225.71 -17.02,-4.53 -32.59,-5.13 -46.74,-3.76 -13.44,1.2 -24.9,4.49 -34.87,8.59 -20.4,7.83 -32.9,18.87 -38.2,23.06l6.93 -90.68 178.66 -15.53 -6.76 -77.12 -231.32 20.23 -17.96 245.04 77.72 -6.79c6.93,-19.77 25.49,-32.43 46.15,-36.07 20.66,-3.76 43.93,1.5 61.13,20.37 25.96,28.69 39.22,133.57 -37.43,144.57 -55.53,6.63 -65.49,-23.22 -68.95,-48.89l-84.52 7.4z"/>
  <path class="fil0" d="M3205.52 5054.26c9.32,30.02 22.62,60.65 54.45,82.85 49.79,33.49 92.65,24.72 123.62,16.43 116.6,-31.4 123.57,-117.07 114.5,-162.38 -12.37,-60.78 -38.92,-84.35 -90.85,-100.17 17.24,-25.67 33.37,-46.5 25.84,-88.29 -3.51,-20.23 -11.81,-65.61 -67.33,-92.64 -20.66,-10.39 -53.25,-11.17 -84.65,-4.83 -31.22,6.62 -62.45,18.26 -81.18,36.53 -61.56,61.72 -40.72,115.74 -31.99,145.9l76.52 -20.53c-6.32,-28.19 -19.33,-76.78 36.66,-90.51 47.82,-11.64 70.62,16.73 73.18,57.32 6.03,36.53 -28.52,59.16 -68.94,70.02l15.23 56.29c77.59,-35.29 140.64,34.1 100.34,102.15 -4.66,8.16 -10.56,14.8 -20.06,20.1 -8.89,4.19 -21.73,6.33 -39.39,4.83 -34.4,-3.03 -41.79,-18.73 -55.83,-54.49l-80.11 21.43z"/>
  <path class="fil1" d="M2495.1 1887.96c0,-40.12 68.52,-74.08 164.93,-87.34l0 85.55 181.83 0 0 -85.12c94.74,13.6 161.9,47.22 161.9,86.91 0,51.46 -113.9,93.25 -254.25,93.25 -140.64,0 -254.41,-41.79 -254.41,-93.25z"/>
  <path class="fil1" d="M2495.1 2099.44c0,-40.13 68.52,-74.08 164.93,-87.35l0 85.55 181.83 0 0 -85.12c94.74,13.61 161.9,47.26 161.9,86.92 0,51.45 -113.9,93.11 -254.25,93.11 -140.64,0 -254.41,-41.66 -254.41,-93.11z"/>
  <path class="fil1" d="M2805.84 2002.3l0 64.46 -113.01 0 0 -64.46c18.27,1.54 37.13,2.44 56.6,2.44 19.46,0 38.32,-0.9 56.42,-2.44z"/>
  <path class="fil1" d="M2495.1 2310.74c0,-40 68.52,-73.95 164.93,-87.22l0 85.55 181.83 0 0 -85.12c94.74,13.61 161.9,47.26 161.9,86.79 0,51.58 -113.9,93.24 -254.25,93.24 -140.64,0 -254.41,-41.66 -254.41,-93.24z"/>
  <path class="fil1" d="M2495.1 2522.21c0,-39.99 68.52,-73.95 164.93,-87.21l0 85.54 181.83 0 0 -85.07c94.74,13.56 161.9,47.22 161.9,86.74 0,51.62 -113.9,93.24 -254.25,93.24 -140.64,0 -254.41,-41.62 -254.41,-93.24z"/>
  <path class="fil1" d="M2495.1 2733.68c0,-39.99 68.52,-73.95 164.93,-87.21l0 85.38 181.83 0 0 -85.08c94.74,13.73 161.9,47.35 161.9,86.91 0,51.58 -113.9,93.25 -254.25,93.25 -140.64,0 -254.41,-41.67 -254.41,-93.25z"/>
  <path class="fil1" d="M2495.1 2945.1c0,-39.99 68.52,-73.95 164.93,-87.38l0 85.59 181.83 0 0 -85.12c94.74,13.6 161.9,47.39 161.9,86.91 0,51.46 -113.9,93.25 -254.25,93.25 -140.64,0 -254.41,-41.79 -254.41,-93.25z"/>
  <path class="fil1" d="M2495.1 3156.58c0,-40 68.52,-74.08 164.93,-87.35l0 85.55 181.83 0 0 -85.12c94.74,13.61 161.9,47.22 161.9,86.92 0,51.45 -113.9,93.24 -254.25,93.24 -140.64,0 -254.41,-41.79 -254.41,-93.24z"/>
  <path class="fil1" d="M2495.1 3368.05c0,-40.17 68.52,-74.08 164.93,-87.39l0 85.55 181.83 0 0 -85.07c94.74,13.56 161.9,47.21 161.9,86.91 0,51.45 -113.9,93.24 -254.25,93.24 -140.64,0 -254.41,-41.79 -254.41,-93.24z"/>
  <path class="fil1" d="M2495.1 1666.79c0,-40 68.52,-73.91 164.93,-87.22l0 85.55 181.83 0 0 -85.08c94.74,13.56 161.9,47.22 161.9,86.75 0,51.62 -113.9,93.24 -254.25,93.24 -140.64,0 -254.41,-41.62 -254.41,-93.24z"/>
  <path class="fil1" d="M2749.42 1352.49c59.93,-128.4 199.02,-136.57 199.02,-136.57 87.68,-9.79 124.04,57.06 124.04,57.06 -254.24,22.33 -266.64,296.81 -266.64,296.81l0 64.42 -113.01 0 0 -64.42c0,0 -12.23,-274.48 -266.6,-296.81 0,0 36.36,-66.85 124.18,-57.06 0,0 138.96,8.17 199.02,136.57z"/>
  <path class="fil0" d="M2628.16 1121.86c0,-66.86 54.16,-121.31 121.31,-121.31 66.85,0 121.01,54.45 121.01,121.31 0,66.85 -54.16,121.18 -121.01,121.18 -67.15,0 -121.31,-54.33 -121.31,-121.18z"/>
  <path class="fil0" d="M1813.24 1492.14c0,-66.81 54.2,-121.31 121.35,-121.31 66.82,0 121.01,54.5 121.01,121.31 0,66.86 -54.19,121.35 -121.01,121.35 -67.15,0 -121.35,-54.49 -121.35,-121.35z"/>
  <path class="fil0" d="M1956.37 3161.02c110.61,-281.44 259.5,-388.12 259.5,-388.12 -529.02,-372.25 -615.47,-913.33 -615.47,-913.33 -551.39,358.05 -255.61,1092.17 -255.61,1092.17 -3.94,-221.22 78.62,-359.9 78.62,-359.9 -36.23,-269.63 100.48,-470.8 100.48,-470.8 142.73,414.34 466.74,663.8 466.74,663.8 -117.28,139.56 -179.13,328.02 -179.13,328.02 80.42,50.09 144.88,48.16 144.88,48.16z"/>
  <path class="fil0" d="M1600.32 2400.65c7.86,18.86 37.43,63.81 88.58,134.73 -358.06,559.39 60.23,915.34 60.23,915.34l10.09 -100.65c59.75,27.46 144.87,46.33 144.87,46.33l-10.26 289.69c-491.04,-122.2 -504.76,-698.01 -504.76,-698.01 6.07,-370.29 211.26,-587.44 211.26,-587.44z"/>
  <path class="fil0" d="M1604.29 3034.42c236.75,231.62 611.57,203.09 611.57,203.09 116.51,281.57 400.19,305.7 400.19,305.7l0 154.83c-374.05,-60.35 -498.86,-311.9 -498.86,-311.9 -229.35,-5.9 -460.49,-128.57 -460.49,-128.57 -62.33,-132.77 -52.4,-223.15 -52.4,-223.15z"/>
  <path class="fil0" d="M3390.42 1492.14c0,-66.81 54.33,-121.31 121.35,-121.31 66.86,0 121.01,54.5 121.01,121.31 0,66.86 -54.15,121.35 -121.01,121.35 -67.02,0 -121.35,-54.49 -121.35,-121.35z"/>
  <path class="fil0" d="M3879.66 1735.31c-28.05,-75.15 -185.89,-79.82 -185.89,-79.82 -100.52,-4.23 -204.75,78.75 -204.75,78.75 -78.5,-133.24 -304.38,-117.24 -304.38,-117.24 197.23,131.91 217.29,381.8 217.29,381.8l0 258.31c485.3,140.51 534.8,648.22 534.8,648.22 68.48,-84.35 84.18,-268.39 84.18,-268.39 -142.74,-352.79 -460.24,-483.17 -460.24,-483.17l0 -95.51c25.36,-309.33 319,-322.93 319,-322.93z"/>
  <path class="fil0" d="M3534.4 3362.45c-39.53,8.29 -128.11,26.56 -171.86,24.72 0,0 -125.72,246.11 -479.83,308.91l0 -156.04c0,0 295.73,-55.09 385.51,-300.14 0,0 122.38,1.37 234.79,-25.79 0,0 28.1,61.85 31.39,148.34z"/>
  <path class="fil0" d="M3623.24 2422.29c-155.27,203.25 -351.55,352.02 -351.55,352.02 375.11,309.63 314.47,907.18 314.47,907.18 439.23,-91.11 495.36,-591.94 495.36,-591.94 -60.66,98.86 -215.75,186.37 -215.75,186.37 -31.39,94.44 -130.54,173.06 -130.54,173.06 -16.47,-410.11 -239.49,-664.4 -239.49,-664.4 143.51,-122.68 234.36,-253.35 234.36,-253.35 -39.7,-61.42 -106.85,-108.94 -106.85,-108.94z"/>
  <path class="fil0" d="M3750.15 2217.75c88.41,-149.23 132.63,-361.52 132.63,-361.52 463.83,306.6 304.34,918.77 304.34,918.77 -81.92,389.75 -432.44,518.93 -432.44,518.93 -12.24,-108.65 -38.33,-151.63 -38.33,-151.63 300.1,-148.17 328.03,-380.73 328.03,-380.73 84.35,-423.55 -86.45,-634.79 -86.45,-634.79 -34.86,111.33 -93.11,197.82 -93.11,197.82 -32.6,-40.76 -114.67,-106.85 -114.67,-106.85z"/>
  <path class="fil1" d="M2671.19 3727.18l0 -232.22c24.59,2.69 50.98,4.36 78.32,4.36 27.16,0 53.42,-1.67 78.03,-4.36l0 232.22c64.11,7.22 121.9,23.39 167.8,45.55 125.54,35.16 241.71,-100.35 241.71,-100.35 18.26,-20.96 38.62,-33.62 56.29,-41.49 17.8,-8.76 39.22,-13.86 62.32,-13.86 42.09,0 78.92,17.19 97.79,42.51 15.82,20.41 25.66,47.87 25.66,78.03 0,62.62 -42.13,113.47 -94.01,113.47 -43.63,0 -80.29,-35.76 -90.85,-84.35 -18.27,8 -24.77,56.12 -24.77,56.12 -36.78,134.31 -76.78,179.26 -120.71,224.26 -30.45,35.76 -84.18,59.59 -145.3,59.59 -41.96,0 -80.42,-11.3 -110.14,-29.86 -30.32,35 -83.45,58.09 -143.81,58.09 -60.52,0 -113.47,-23.09 -144.1,-58.09 -29.73,18.57 -68.22,29.86 -110.02,29.86 -61.12,0 -114.84,-23.83 -145.47,-59.59 -43.88,-45 -83.88,-89.95 -120.71,-224.26 0,0 -6.5,-48.11 -24.76,-56.12 -10.56,48.59 -47.05,84.35 -90.68,84.35 -51.88,0 -94.01,-50.85 -94.01,-113.47 0,-30.15 9.83,-57.62 25.83,-78.03 18.69,-25.32 55.35,-42.51 97.49,-42.51 23.05,0 44.65,5.09 62.32,13.86 17.62,7.87 38.02,20.53 56.25,41.49 0,0 116.21,135.5 241.75,100.35 46.02,-22.16 103.68,-38.33 167.8,-45.55z"/>
  <path class="fil0" d="M1569.4 1725.13c28.05,-75.15 185.89,-79.65 185.89,-79.65 100.48,-4.23 204.75,78.75 204.75,78.75 99.93,-165.53 325.51,-114.07 325.51,-114.07 -197.4,131.74 -211.13,384.62 -211.13,384.62l-1.5 250.95c-82.38,26.09 -198.89,108.65 -198.89,108.65 -58.52,-64.42 -76.66,-132.77 -76.66,-132.77 56.89,-31.09 118.79,-66.25 118.79,-66.25l0 -129.18c-25.36,-309.33 -346.76,-301.04 -346.76,-301.04z"/>
  <path class="fil1" d="M2805.84 1790.87l0 64.42 -113.01 0 0 -64.42c18.27,1.5 37.13,2.4 56.6,2.4 19.46,0 38.32,-0.9 56.42,-2.4z"/>
  <path class="fil1" d="M2805.84 2213.78l0 64.46 -113.01 0 0 -64.46c18.27,1.54 37.13,2.43 56.6,2.43 19.46,0 38.32,-0.89 56.42,-2.43z"/>
  <path class="fil1" d="M2805.84 2425.24l0 64.42 -113.01 0 0 -64.42c18.27,1.5 37.13,2.39 56.6,2.39 19.46,0 38.32,-0.89 56.42,-2.39z"/>
  <path class="fil1" d="M2805.84 2636.71l0 64.42 -113.01 0 0 -64.42c18.27,1.5 37.13,2.27 56.6,2.27 19.46,0 38.32,-0.77 56.42,-2.27z"/>
  <path class="fil1" d="M2805.84 2848.14l0 64.29 -113.01 0 0 -64.29c18.27,1.54 37.13,2.27 56.6,2.27 19.46,0 38.32,-0.73 56.42,-2.27z"/>
  <path class="fil1" d="M2805.84 3059.49l0 64.41 -113.01 0 0 -64.41c18.27,1.66 37.13,2.43 56.6,2.43 19.46,0 38.32,-0.77 56.42,-2.43z"/>
  <path class="fil1" d="M2805.84 3270.96l0 64.42 -113.01 0 0 -64.42c18.27,1.5 37.13,2.39 56.6,2.39 19.46,0 38.32,-0.89 56.42,-2.39z"/>
  <path class="fil1" d="M1803.54 3936.84c25.96,-6.62 50.68,-2.56 74.25,12.67 31.69,20.23 47.99,46.02 48.29,77.42 0.13,17.5 -3.34,32.77 -10.73,45.56l-39.7 -25.5c3.51,-10.99 5,-20.36 4.1,-27.75 -1.66,-13.14 -9.36,-24.12 -23.09,-33.2 -14.21,-8.89 -29.43,-9.96 -45.25,-2.86 -16.18,6.92 -31.27,21.6 -45.6,44.05 -14.33,22.33 -20.66,41.96 -19.16,58.56 1.49,16.77 9.06,29.43 22.2,37.73 13.56,8.72 27.15,10.69 40.29,5.56 7.4,-2.57 15.53,-8.12 24.72,-16.9l39.4 25.36c-17.2,19.64 -37.26,31.69 -60.06,36.36 -22.63,4.84 -44.82,0 -66.68,-13.86 -27.33,-17.37 -42.56,-40.16 -46.32,-68.52 -3.64,-28.35 4.96,-58.69 25.32,-90.98 22.32,-34.86 48.46,-56.16 78.02,-63.69z"/>
  <polygon class="fil1" points="2118.3,4132.23 2010.98,4079.41 1988.95,4124.67 2087.38,4173.12 2069.11,4210.08 1970.56,4161.67 1943.87,4216.41 2055.98,4271.51 2037.24,4309.66 1883.65,4234.25 1988.23,4021.62 2136.87,4094.51 "/>
  <path class="fil1" d="M2203.59 4164.96l-21.56 59.88 47.82 17.07c9.49,3.47 17.07,4.83 22.63,4.06 10.13,-1.19 17.07,-8.12 21.73,-20.66 4.83,-13.43 3.93,-24.16 -2.57,-31.69 -3.46,-4.23 -9.92,-7.86 -19.16,-11.16l-48.89 -17.5zm103.69 -0.3c6.32,6.46 11.34,14.03 14.2,22.75 2.56,7.27 3.89,14.81 4.06,22.63 0.13,7.87 -1.37,16 -4.7,24.89 -3.59,10.56 -9.92,20.11 -18.69,28.4 -8.77,8.6 -19.77,12.67 -32.9,12.84 8.12,7.65 12.96,16 14.33,25.02 1.37,9.06 -0.77,21.43 -6.33,37.13l-5.3 14.93c-3.59,10.26 -5.73,17.2 -6.16,21.3 -1.06,6.16 0.13,11.3 3.6,15.53l-1.93 5.6 -49.06 -17.54c0.47,-5.43 0.9,-9.62 1.2,-12.96 1.24,-6.63 2.87,-13.27 5.13,-19.94l7.1 -20.83c4.96,-14.33 6.03,-24.59 3.16,-30.92 -2.86,-6.32 -10.26,-11.89 -22.62,-16.13l-43.33 -15.57 -31.35 87.56 -43.63 -15.7 79.99 -223.02 101.72 36.36c14.33,5.43 24.89,11.47 31.52,17.67z"/>
  <path class="fil1" d="M2417.59 4232.28l-13.61 62.2 49.66 10.87c9.96,2.09 17.49,2.56 23.09,1.06 9.62,-2.43 15.83,-10.26 18.7,-23.26 3.03,-14.04 0.77,-24.3 -6.5,-30.92 -4.19,-3.94 -11,-6.8 -20.49,-8.9l-50.85 -11.04zm102.91 -13.56c7.06,5.43 12.97,12.37 17.03,20.83 3.33,6.93 5.6,14.16 6.79,21.73 1.2,7.82 0.77,16.3 -1.19,25.32 -2.44,11.04 -7.57,21.3 -15.1,30.66 -7.53,9.62 -17.97,15.23 -31.1,16.9 9.24,6.63 15.11,14.33 17.67,23.06 2.57,8.93 1.97,21.43 -1.5,37.6l-3.46 15.53c-2.26,10.56 -3.46,17.79 -3.46,21.72 0,6.33 1.92,11.34 5.73,15.11l-1.37 5.9 -50.85 -11.22c-0.3,-5.25 -0.47,-9.79 -0.47,-12.96 0.29,-6.8 1.06,-13.56 2.56,-20.36l4.4 -21.73c3.17,-14.63 2.7,-25.19 -0.89,-31.09 -3.51,-5.86 -11.81,-10.26 -24.64,-13.14l-45.08 -9.79 -19.64 90.85 -44.95 -9.83 50.56 -231.62 105.3 23.1c15.11,3.63 26.26,8.12 33.67,13.43z"/>
  <path class="fil1" d="M2646.85 4377.42l57.67 3.8 -22.2 -94.91 -35.47 91.11zm13.01 -146.98l53.08 3.64 63.99 241.88 -51.16 -3.46 -11.59 -49.49 -82.85 -5.6 -18.57 47.56 -49.19 -3.33 96.28 -231.2z"/>
  <polygon class="fil1" points="2835.48,4473.82 2812.38,4237.97 2859,4233.31 2867.78,4323.22 2955.12,4314.62 2946.23,4224.84 2993.02,4220.18 3016.12,4456.15 2969.49,4460.7 2959.05,4355.39 2871.71,4363.81 2882.11,4469.29 "/>
  <path class="fil1" d="M3152.73 4229.93c-7.05,-3.46 -15.83,-3.76 -26.22,-1.07l-41.06 11.04 18.26 67.46 40.9 -11.17c10.56,-2.74 17.79,-7.7 22.15,-14.64 4.24,-7.09 4.83,-16.64 1.67,-28.52 -3.29,-11.94 -8.59,-19.64 -15.7,-23.1zm57.06 72.88c-9.79,14.81 -26.39,25.19 -50.08,31.69l-45.3 12.24 22.33 82.21 -45.25 12.24 -62.03 -228.63 93.55 -25.32c21.6,-5.9 40.29,-4.7 56.29,3.59 16,8.3 27.33,24.9 34.14,49.66 7.22,26.99 6.02,47.82 -3.64,62.32z"/>
  <path class="fil1" d="M3315.74 4276.08l53.12 -23.09 -63.39 -74.25 10.26 97.35zm-55.99 -136.4l48.89 -21.43 167.8 185.43 -46.79 20.4 -33.2 -38.62 -76.19 33.19 5.43 50.68 -45.12 19.77 -20.83 -249.42z"/>
  <path class="fil1" d="M3516.56 4194.13c7.1,8.42 13.9,13.73 20.36,15.83 11.81,4.23 25.83,1.24 41.83,-8.9 9.62,-6.03 16.6,-12.06 21.26,-17.96 8.77,-11.3 9.49,-22.76 2.44,-34.1 -4.23,-6.62 -10.13,-9.96 -18.14,-9.96 -7.69,-0.13 -18.56,2.27 -32.43,7.27l-23.56 8.12c-23.23,8.17 -40.42,11.77 -51.58,11.17 -18.87,-1.2 -34.27,-11.64 -46.62,-31.22 -11.34,-18.09 -14.51,-36.96 -9.37,-56.76 5,-19.77 19.76,-37.39 44.23,-52.78 20.36,-12.84 41.32,-18.14 62.75,-16.17 21.43,2.26 39.27,13.73 53.42,34.56l-38.33 24.3c-8.42,-11.64 -18.86,-16.9 -31.69,-16 -8.59,0.77 -17.32,3.93 -26.99,9.79 -10.56,6.8 -17.49,14.2 -21,22.67 -3.59,8.12 -2.99,16.3 1.84,24.12 4.53,7.1 11,10.56 19.59,10.09 5.43,-0.13 15.7,-2.69 30.49,-7.7l38.8 -12.79c16.9,-5.73 31.05,-7.7 42.09,-6.37 17.5,2.27 31.69,12.41 43.16,30.37 11.47,18.22 14.16,37.68 8.29,58.21 -5.9,20.71 -20.83,38.63 -44.95,53.89l0 17.63c2.39,-2.4 4.19,-4.07 5.26,-4.96 0.9,-1.07 2.26,-2.1 3.63,-2.87 6.93,-4.36 13.44,-6.03 19.89,-4.96 6.37,0.9 11.64,4.79 15.87,11.47 5.13,8.42 6.03,17.03 2.7,25.92 -3.47,9.06 -10.26,16.64 -20.36,23.1 -4.36,2.73 -10.26,5.13 -17.8,7.09 -3.46,0.9 -8.46,2.1 -14.8,3.34l-2.27 -14.8c5.9,-1.67 9.79,-2.87 11.94,-3.47 4.83,-1.54 8.59,-3.16 11.17,-4.83 5.26,-3.16 8.29,-6.8 8.89,-10.43 0.77,-3.76 0.47,-6.93 -1.07,-9.49 -2.39,-3.76 -5.43,-5.73 -8.89,-5.56 -3.29,0 -6.63,0.9 -9.49,2.69 -1.67,1.07 -3.16,2.44 -4.66,3.77 -1.37,1.54 -3.04,3.5 -4.83,5.43l-8.89 -1.8 0 -28.65c-16.47,10.38 -35.64,14.16 -57.54,11.29 -21.86,-2.86 -39.52,-14.63 -52.65,-35.59l38.03 -23.99z"/>
  <path class="fil1" d="M3712.42 4037.32l44.52 -36.83 -81.48 -53.72 36.96 90.55zm-91.75 -115.44l41.07 -34.09 212.75 131.44 -39.4 32.72 -42.55 -28.05 -63.99 53.12 19.46 47.22 -38.03 31.52 -89.31 -233.89z"/>
  <path class="fil1" d="M20082.85 2337.81c16.3,0 30.03,5.56 41.19,16.77 11.47,11.47 17.07,24.89 17.07,39.95 0,16.9 -5.6,30.97 -17.07,42.13 -11.16,11.3 -25.49,17.03 -42.55,17.03 -15.24,0 -28.49,-5.86 -39.53,-17.2 -11.34,-11.29 -16.77,-25.06 -16.77,-41.02 0,-15.7 5.43,-29.12 16.77,-40.46 11.04,-11.17 24.77,-16.9 40.89,-17.2zm-4529.56 0c16.47,0 30.2,5.56 41.37,16.77 11.29,11.47 16.89,24.89 16.89,39.95 0,16.9 -5.6,30.97 -16.89,42.13 -11.17,11.3 -25.37,17.03 -42.56,17.03 -15.4,0 -28.66,-5.86 -39.7,-17.2 -11,-11.29 -16.6,-25.06 -16.6,-41.02 0,-15.7 5.6,-29.12 16.6,-40.46 11.04,-11.17 24.77,-16.9 40.89,-17.2zm-5929.99 0c16.29,0 30.02,5.56 41.19,16.77 11.34,11.47 16.89,24.89 16.89,39.95 0,16.9 -5.55,30.97 -16.89,42.13 -11.17,11.3 -25.37,17.03 -42.56,17.03 -15.4,0 -28.66,-5.86 -39.65,-17.2 -11.05,-11.29 -16.65,-25.06 -16.65,-41.02 0,-15.7 5.6,-29.12 16.65,-40.46 10.99,-11.17 24.72,-16.9 41.02,-17.2zm-2361.64 0c16.43,0 30.02,5.56 41.32,16.77 11.17,11.47 16.94,24.89 16.94,39.95 0,16.9 -5.77,30.97 -16.94,42.13 -11.3,11.3 -25.49,17.03 -42.69,17.03 -15.23,0 -28.52,-5.86 -39.52,-17.2 -11.17,-11.29 -16.77,-25.06 -16.77,-41.02 0,-15.7 5.6,-29.12 16.77,-40.46 11,-11.17 24.72,-16.9 40.89,-17.2zm-176.99 0c17.19,0 31.05,5.56 42.26,16.77 11.17,11.47 16.72,25.79 16.72,42.69 0,14.93 -5.55,28.23 -16.72,39.39 -11.34,11.3 -25.07,17.03 -41.36,17.03 -15.71,0 -29.26,-5.73 -40.77,-17.03 -11.3,-10.87 -17.02,-24.59 -17.02,-40.76 0,-16 5.55,-29.55 16.59,-40.59 10.87,-11.17 24.3,-16.9 40.3,-17.5zm385.98 213.83l0 339.36c0,64.29 -11.76,112.24 -35.46,144.24 -42.73,57.36 -130.67,86.01 -263.91,86.01 -96.45,0 -170.24,-15.4 -221.52,-46.45 -29.72,-17.96 -50.55,-42.56 -62.02,-73.65 -11.34,-30.92 -17.07,-67.58 -17.07,-110.14l0 -339.36c0,-9.2 -1.79,-16 -6.15,-21.01 -4.11,-4.49 -11.47,-8.42 -22.03,-11.46l0 -14.17 188.89 0 0 14.17c-10.39,2.73 -17.8,6.49 -22.03,11.34 -4.19,4.95 -6.33,11.93 -6.33,21.13l0 302.06c0,34.86 1.97,60.83 5.73,77.59 3.93,16.6 11.17,30.63 21.73,41.79 28.35,30.16 76.95,45.43 145.64,45.43 68.95,0 117.54,-15.27 145.91,-45.43 10.39,-11.16 17.49,-25.19 21.25,-41.79 3.94,-16.76 5.73,-42.73 5.73,-77.59l0 -302.06c0,-9.2 -1.92,-16 -6.15,-21.01 -4.06,-4.49 -11.47,-8.42 -22.03,-11.46l0 -14.17 178.19 0 0 14.17c-10.56,3.03 -17.97,6.96 -22.2,11.46 -4.06,5.01 -6.16,11.81 -6.16,21.01z"/>
  <path class="fil1" d="M8315.88 2695.7l0 368.36c0,9.19 2.1,16.13 6.33,20.83 4.06,4.66 11.47,8.6 22.03,11.47l0 14.33 -177.76 0 0 -14.33c10.56,-2.86 17.96,-6.8 22.07,-11.47 4.19,-4.7 6.15,-11.64 6.15,-20.83l0 -512.89c0,-8.9 -1.96,-15.71 -6.15,-20.54 -4.11,-4.53 -11.51,-8.42 -22.07,-11.46l0 -14.21 205.83 0 0 14.21c-12.8,3.46 -19.17,9.96 -19.17,20.53 0,7.09 4.11,14.76 12.54,23.52l334.1 347.36 0 -359.42c0,-8.9 -2.14,-15.71 -6.2,-20.54 -4.06,-4.53 -11.64,-8.42 -22.33,-11.46l0 -14.21 177.89 0 0 14.21c-10.56,3.03 -17.96,6.92 -22.03,11.46 -4.23,4.83 -6.2,11.64 -6.2,20.54l0 512.89c0,9.19 1.97,16.13 6.2,20.83 4.07,4.66 11.47,8.6 22.03,11.47l0 14.33 -190.55 0 0 -14.33c12.36,-2.56 18.52,-8.89 18.52,-19.04 0,-5.85 -7.23,-16.12 -21.73,-31.09l-339.5 -350.52z"/>
  <path class="fil1" d="M9557.51 3064.1l0 -512.89c0,-8.89 -2.26,-15.7 -6.33,-20.53 -4.06,-4.49 -11.46,-8.6 -22.02,-11.47l0 -14.16 188.76 0 0 14.16c-10.56,2.56 -17.93,6.5 -22.03,11.34 -4.06,4.83 -6.33,11.77 -6.33,20.66l0 512.89c0,9.2 2.27,16.17 6.63,21.13 4.23,4.84 11.47,8.47 21.73,11.17l0 14.34 -188.76 0 0 -14.34c10.56,-2.99 17.96,-6.79 22.02,-11.46 4.07,-4.84 6.33,-11.64 6.33,-20.84z"/>
  <path class="fil1" d="M10696.61 2934.59l160.69 -355.53c6.8,-15.06 10.26,-26.69 10.26,-34.99 0,-12.67 -9.96,-21.13 -29.42,-24.89l0 -14.21 207.5 0 0 14.21c-13.01,1.79 -22.2,5.43 -27.16,11.16 -5.01,5.6 -13.74,21.9 -26.14,48.72l-210.19 453.01c-8.76,19.29 -13.26,31.82 -13.26,37.73 0,15.1 9.32,24 28.06,26.56l0 14.33 -208.7 0 0 -14.33c18.57,-2.56 28.06,-11.64 28.06,-26.86 0,-5.73 -4.53,-18.14 -13.44,-37.43l-210.06 -453.01c-12.36,-26.82 -20.96,-43.12 -26.09,-48.72 -5.13,-5.72 -14.03,-9.36 -26.98,-11.16l0 -14.21 215.15 0 0 14.21c-19.6,3.76 -29.43,12.23 -29.43,24.89 0,8.29 3.46,19.93 10.26,34.99l160.87 355.53z"/>
  <path class="fil1" d="M11828.3 2844.85l0 166.01 389.62 0c8.89,0 15.7,-2.14 20.36,-6.2 4.66,-4.24 8.46,-11.6 11.47,-22.16l14.33 0 0 156.46 -14.33 0c-3,-10.56 -6.8,-17.96 -11.47,-22.03 -4.66,-4.23 -11.47,-6.19 -20.36,-6.19l-550.15 0 0 -14.34c10.56,-2.99 18.1,-6.79 22.03,-11.46 4.19,-4.67 6.33,-11.64 6.33,-20.84l0 -512.42c0,-9.19 -2.14,-16.17 -6.33,-21 -3.93,-4.49 -11.47,-8.6 -22.03,-11.47l0 -14.16 539.42 0c8.93,0 15.7,-2.14 20.4,-6.33 4.83,-4.23 8.59,-11.51 11.6,-22.03l14.2 0 0 156.59 -14.2 0c-3,-10.56 -6.76,-17.92 -11.6,-22.15 -4.7,-4.07 -11.47,-6.33 -20.4,-6.33l-378.89 0 0 143.8 245.81 0c8.72,0 15.7,-1.96 20.36,-6.37 4.83,-3.89 8.6,-11.46 11.64,-22.02l14.16 0 0 153.04 -14.16 0c-3.03,-10.43 -6.8,-17.67 -11.64,-21.9 -4.66,-4.23 -11.64,-6.5 -20.36,-6.5l-245.81 0z"/>
  <path class="fil1" d="M13089.38 2763.66l204.15 0c30.02,0 51.32,-0.94 63.69,-2.73 12.36,-1.67 23.99,-5.43 34.26,-11 22.46,-12.11 33.8,-33.97 33.8,-65.66 0,-31.52 -11.34,-53.54 -33.8,-65.65 -10.56,-6.03 -22.02,-9.62 -33.96,-11.3 -11.94,-1.67 -33.2,-2.56 -63.99,-2.56l-204.15 0 0 158.89zm0 99.88l0 200.99c0,8.89 2.13,15.83 6.32,20.66 4.24,4.83 11.64,8.6 21.9,11.17l0 14.38 -188.76 0 0 -14.38c10.56,-2.86 17.93,-6.75 22.03,-11.47 4.19,-4.66 6.33,-11.47 6.33,-20.36l0 -512.89c0,-9.2 -2.14,-16.13 -6.33,-20.96 -4.1,-4.54 -11.47,-8.6 -22.03,-11.47l0 -14.21 378.72 0c46.2,0 82.85,2.74 109.89,8 27.15,5.26 50.68,14.8 70.74,27.93 23.4,15.36 40.76,36.19 52.35,62.45 11.04,25.49 16.47,52.82 16.47,81.65 0,98.98 -54.93,156.76 -164.64,173.66l117.54 167.21c20.83,29.42 35.76,48.11 45.55,56.59 9.53,8.42 21.3,13.13 35.16,13.86l0 14.38 -218.78 0 0 -14.38c15.23,-2.27 22.63,-7.7 22.63,-15.83 0,-5.43 -6.93,-18.26 -20.79,-38.62l-122.72 -178.37 -161.59 0z"/>
  <path class="fil1" d="M14797.58 2556.34l-72.29 142.61 -12.53 -7.27c0.3,-2.86 0.47,-5.26 0.47,-6.93 0,-10.09 -8.47,-20.83 -25.66,-32.28 -52.65,-36.66 -114.55,-55.23 -185.47,-55.23 -31.35,0 -59.16,3.93 -82.99,11.64 -17.49,5.86 -31.69,14.76 -42.38,26.52 -10.74,11.93 -16.17,24.59 -16.17,38.67 0,22.75 13.73,38.15 41.19,46.45 14.2,4.23 44.69,8.59 91.44,13.43l69.55 7.1c41.53,4.36 74.85,10.39 100.52,18.09 25.66,7.7 48.42,18.44 68.22,32.47 20.06,14.33 36.06,33.33 47.65,57.02 11.64,23.7 17.54,49.06 17.54,75.76 0,42.69 -13.78,80.59 -41.24,113.47 -24.89,30.33 -63.51,52.52 -115.86,67.16 -39.1,10.87 -80.89,16.3 -125.55,16.3 -80.11,0 -159.32,-19.34 -237.34,-57.67 -16.77,-7.69 -26.44,-11.59 -29.73,-11.59 -3.93,0 -9.96,3.29 -18.26,9.79l-12.84 -6.5 65.66 -148.77 12.96 6.16 0 5.77c0,13.27 6.33,25.62 19.04,36.96 19.16,17.03 48.88,31.82 89.13,44.18 40.17,12.54 78.33,18.87 114.55,18.87 39.22,0 72.88,-6.76 100.65,-20.06 15.4,-7.4 27.63,-17.2 36.83,-29.55 9.19,-12.24 13.86,-24.9 13.86,-38.2 0,-20.07 -11,-34.4 -32.43,-42.99 -15.1,-5.9 -45.55,-11.34 -91.44,-16.3l-68.35 -7.1c-45.86,-4.83 -78.15,-9.36 -97.19,-13.56 -18.86,-4.23 -37.73,-11.21 -56.72,-20.7 -27.03,-13.27 -48.16,-33.2 -63.39,-59.89 -14.03,-23.99 -20.96,-51.45 -20.96,-82.55 0,-51.28 17.62,-93.54 52.95,-127.04 46.02,-44.23 115.14,-66.13 207.62,-66.13 38.63,0 74.68,3.81 108.05,11.81 33.49,7.83 75.15,22.16 125.11,43.46 17.33,6.76 27.76,10.09 31.52,10.09 6.2,0 13.56,-3.33 21.73,-10.09l12.54 6.63z"/>
  <path class="fil1" d="M15487.51 3064.1l0 -512.89c0,-8.89 -2.14,-15.7 -6.2,-20.53 -4.06,-4.49 -11.47,-8.6 -22.03,-11.47l0 -14.16 188.76 0 0 14.16c-10.56,2.56 -17.96,6.5 -22.02,11.34 -4.24,4.83 -6.33,11.77 -6.33,20.66l0 512.89c0,9.2 2.26,16.17 6.5,21.13 4.23,4.84 11.59,8.47 21.85,11.17l0 14.34 -188.76 0 0 -14.34c10.56,-2.99 17.97,-6.79 22.03,-11.46 4.06,-4.84 6.2,-11.64 6.2,-20.84z"/>
  <path class="fil1" d="M16645.59 2604.81l0 459.34c0,9.02 2.09,15.95 6.15,20.79 4.11,4.7 11.47,8.46 22.2,11.46l0 14.38 -188.93 0 0 -14.38c10.73,-2.99 18.14,-6.75 22.2,-11.46 4.06,-4.84 6.16,-11.77 6.16,-20.79l0 -459.34 -188.16 0c-8.9,0 -15.71,2.09 -20.37,6.2 -4.83,3.89 -8.59,11.47 -11.46,22.15l-14.34 0 0 -156.63 14.34 0c3.16,11.04 7.09,18.27 11.64,22.5 4.48,3.93 11.29,6.03 20.19,6.03l508.06 0c9.19,0 16.17,-2.1 20.83,-6.03 4.66,-4.23 8.47,-11.47 11.47,-22.5l14.33 0 0 156.63 -14.33 0c-2.99,-10.68 -6.8,-18.26 -11.47,-22.15 -4.66,-4.11 -11.64,-6.2 -20.83,-6.2l-187.69 0z"/>
  <path class="fil1" d="M17671.47 2844.85l0 166.01 389.62 0c8.89,0 15.7,-2.14 20.36,-6.2 4.7,-4.24 8.46,-11.6 11.47,-22.16l14.37 0 0 156.46 -14.37 0c-3,-10.56 -6.76,-17.96 -11.47,-22.03 -4.66,-4.23 -11.47,-6.19 -20.36,-6.19l-550.15 0 0 -14.34c10.56,-2.99 17.97,-6.79 22.03,-11.46 4.23,-4.67 6.33,-11.64 6.33,-20.84l0 -512.42c0,-9.19 -2.1,-16.17 -6.33,-21 -4.06,-4.49 -11.47,-8.6 -22.03,-11.47l0 -14.16 539.46 0c8.72,0 15.7,-2.14 20.36,-6.33 4.83,-4.23 8.59,-11.51 11.64,-22.03l14.03 0 0 156.59 -14.03 0c-3.04,-10.56 -6.8,-17.92 -11.64,-22.15 -4.66,-4.07 -11.64,-6.33 -20.36,-6.33l-378.93 0 0 143.8 245.81 0c8.76,0 15.53,-1.96 20.36,-6.37 4.83,-3.89 8.59,-11.46 11.64,-22.02l14.2 0 0 153.04 -14.2 0c-3.04,-10.43 -6.8,-17.67 -11.64,-21.9 -4.83,-4.23 -11.6,-6.5 -20.36,-6.5l-245.81 0z"/>
  <path class="fil1" d="M19335.3 2556.34l-72.28 142.61 -12.54 -7.27c0.34,-2.86 0.47,-5.26 0.47,-6.93 0,-10.09 -8.46,-20.83 -25.66,-32.28 -52.65,-36.66 -114.37,-55.23 -185.43,-55.23 -31.39,0 -59.15,3.93 -83.02,11.64 -17.5,5.86 -31.65,14.76 -42.39,26.52 -10.69,11.93 -16.13,24.59 -16.13,38.67 0,22.75 13.74,38.15 41.19,46.45 14.17,4.23 44.66,8.59 91.45,13.43l69.55 7.1c41.49,4.36 74.85,10.39 100.48,18.09 25.66,7.7 48.46,18.44 68.22,32.47 20.06,14.33 36.06,33.33 47.69,57.02 11.59,23.7 17.49,49.06 17.49,75.76 0,42.69 -13.73,80.59 -41.19,113.47 -24.89,30.33 -63.52,52.52 -115.91,67.16 -39.05,10.87 -80.84,16.3 -125.54,16.3 -80.12,0 -159.33,-19.34 -237.35,-57.67 -16.6,-7.69 -26.39,-11.59 -29.72,-11.59 -3.94,0 -9.96,3.29 -18.27,9.79l-12.83 -6.5 65.65 -148.77 12.97 6.16 0 5.77c0,13.27 6.37,25.62 19.03,36.96 19.16,17.03 48.89,31.82 89.18,44.18 40.12,12.54 78.32,18.87 114.5,18.87 39.27,0 72.88,-6.76 100.82,-20.06 15.23,-7.4 27.46,-17.2 36.83,-29.55 9.02,-12.24 13.74,-24.9 13.74,-38.2 0,-20.07 -11.04,-34.4 -32.47,-42.99 -15.06,-5.9 -45.55,-11.34 -91.41,-16.3l-68.39 -7.1c-45.85,-4.83 -78.15,-9.36 -97.14,-13.56 -18.87,-4.23 -37.73,-11.21 -56.77,-20.7 -26.98,-13.27 -48.11,-33.2 -63.39,-59.89 -14.03,-23.99 -20.96,-51.45 -20.96,-82.55 0,-51.28 17.67,-93.54 52.95,-127.04 46.03,-44.23 115.15,-66.13 207.67,-66.13 38.63,0 74.68,3.81 108,11.81 33.54,7.83 75.15,22.16 125.12,43.46 17.36,6.76 27.75,10.09 31.52,10.09 6.2,0 13.6,-3.33 21.9,-10.09l12.36 6.63z"/>
  <path class="fil1" d="M20025.23 3064.1l0 -512.89c0,-8.89 -2.09,-15.7 -6.19,-20.53 -4.07,-4.49 -11.47,-8.6 -22.03,-11.47l0 -14.16 188.8 0 0 14.16c-10.56,2.56 -17.97,6.5 -22.03,11.34 -4.23,4.83 -6.37,11.77 -6.37,20.66l0 512.89c0,9.2 2.27,16.17 6.5,21.13 4.23,4.84 11.64,8.47 21.9,11.17l0 14.34 -188.8 0 0 -14.34c10.56,-2.99 17.96,-6.79 22.03,-11.46 4.1,-4.84 6.19,-11.64 6.19,-20.84z"/>
  <path class="fil1" d="M6415.86 161.76c34.99,0 64.88,12.07 89.18,36.36 24.29,24.3 36.19,54.5 36.19,90.38 0,34.1 -12.2,63.39 -36.79,87.52 -24.9,24.29 -54.33,36.53 -88.58,36.53 -35.04,0 -64.76,-12.37 -89.01,-37.13 -24.3,-24.6 -36.41,-54.03 -36.41,-88.29 0,-34.99 12.11,-64.54 36.41,-88.41 24.25,-23.69 53.98,-36.06 89.01,-36.96zm-153.77 1670.85l0 -1222.55c0,-21.3 -4.83,-37.43 -14.64,-48.76 -10.08,-11.17 -27.62,-20.36 -52.94,-27.45l0 -33.93 450.57 0 0 33.93c-25.36,6.37 -43.03,15.27 -52.99,27.03 -9.79,11.59 -14.76,27.88 -14.76,49.18l0 1222.55c0,21.86 5.13,38.63 15.36,50.26 10.13,11.59 27.5,20.66 52.39,26.98l0 33.97 -450.57 0 0 -33.97c25.32,-7.09 42.86,-16.12 52.94,-27.58 9.8,-11.17 14.64,-27.8 14.64,-49.66z"/>
  <path class="fil1" d="M8593.78 622.27l-172.46 339.96 -29.42 -16.9c0.6,-6.92 1.07,-12.66 1.07,-17.07 0,-23.82 -20.54,-49.61 -61.43,-77.08 -125.37,-87.55 -272.81,-131.31 -442.1,-131.31 -74.67,0 -140.64,9.23 -197.82,27.63 -41.49,14.2 -75.15,35.16 -100.82,63.39 -25.79,28.18 -38.63,58.82 -38.63,91.87 0,54.33 32.6,91.28 98.26,110.91 33.96,9.79 106.37,20.36 217.88,31.82l166.14 16.77c98.68,10.56 178.66,25.06 239.48,43.29 60.96,18.43 115.27,44.05 162.33,77.29 47.99,34.53 85.72,79.95 113.78,136.23 27.93,56.47 41.66,116.81 41.66,180.76 0,101.42 -32.6,191.67 -98.26,270.42 -59.28,71.98 -151.33,125.24 -276.1,159.66 -92.94,26.09 -192.86,39.23 -299.37,39.23 -190.9,0 -379.66,-45.9 -565.89,-137.47 -39.35,-18.39 -62.92,-27.63 -70.74,-27.63 -9.19,0 -23.57,7.87 -43.33,23.27l-30.62 -15.87 156.5 -354.29 30.62 14.8 0 13.87c0,31.69 15.06,60.99 45.56,87.68 45.72,40.89 116.63,76.23 212.62,105.78 95.64,29.55 186.67,44.53 272.64,44.53 93.72,0 174,-16 240.26,-47.57 36.49,-17.62 65.91,-41.02 87.64,-70.14 21.9,-29.25 32.9,-59.76 32.9,-91.45 0,-47.82 -25.79,-81.91 -77.25,-102.44 -35.94,-13.91 -108.65,-27.03 -217.89,-38.93l-162.84 -16.9c-109.37,-11.34 -186.63,-22.07 -231.62,-32.28 -45.08,-10.27 -90.38,-26.56 -135.51,-49.19 -64.11,-31.86 -114.5,-79.39 -151.16,-142.91 -33.24,-57.19 -49.65,-122.98 -49.65,-196.93 0,-121.9 41.79,-222.89 125.84,-302.7 110.01,-105.18 274.95,-157.83 494.93,-157.83 92.51,0 178.36,9.49 258.05,28.22 79.82,18.87 179.26,53.42 298.3,103.65 40.77,16.29 65.96,24.46 75.15,24.46 14.8,0 32.12,-8.17 51.75,-24.46l29.55 15.87z"/>
  <path class="fil1" d="M9955.81 737.92l0 1094.74c0,21.73 4.83,38.5 14.8,49.66 9.97,11.34 27.46,20.53 52.82,27.63l0 33.79 -450.44 0 0 -33.79c25.36,-7.1 42.86,-16.3 52.82,-27.63 9.96,-11.17 14.8,-27.93 14.8,-49.66l0 -1094.74 -448.48 0c-21.13,0 -37.43,4.83 -48.59,14.63 -11.17,9.67 -20.53,27.33 -27.45,53.12l-33.8 0 0 -373.28 33.8 0c7.69,25.79 17.06,43.29 27.92,53.08 11,9.66 26.99,14.5 48.12,14.5l1211.08 0c21.73,0 38.5,-4.83 49.66,-14.5 11.3,-9.79 20.53,-27.29 27.58,-53.08l33.84 0 0 373.28 -33.84 0c-7.05,-25.79 -16.29,-43.45 -27.58,-53.12 -11.17,-9.79 -27.93,-14.63 -49.66,-14.63l-447.41 0z"/>
  <path class="fil1" d="M11809.6 1377.9l-234.18 -514.27 -237.82 514.27 472 0zm90.81 197.82l-656.22 0 -97.32 202.96c-13.13,28.18 -19.93,50.38 -19.93,66.68 0,31.09 23.52,52.52 70.62,64.42l0 33.96 -477.44 0 0 -33.96c28.23,-5.56 49.66,-15.36 64.42,-29.55 14.97,-14.21 31.86,-41.5 50.85,-82.56l530.86 -1109.36c17.07,-35.29 25.37,-63.52 25.37,-84.65 0,-32.47 -20.41,-55.7 -61.3,-69.85l0 -33.84 512 0 0 33.84c-41.79,12.07 -62.45,32.9 -62.45,62.45 0,20.53 6.76,43.76 20.19,69.72l549.89 1112.71c23.22,47.35 43.75,79.65 61.25,96.87 17.67,17.2 41.36,28.66 70.92,34.23l0 33.96 -531.47 0 0 -33.96c46.63,-7.7 70.02,-29.55 70.02,-65.49 0,-14.93 -7.09,-36.66 -21.13,-65.61l-99.15 -202.96z"/>
  <path class="fil1" d="M13307.91 954.82l0 877.8c0,21.86 4.83,38.46 14.81,49.61 9.79,11.47 27.45,20.54 52.82,27.63l0 33.97 -424.02 0 0 -33.97c25.36,-7.09 42.99,-16.17 52.82,-27.63 9.92,-11.16 14.76,-27.75 14.76,-49.61l0 -1222.55c0,-21.3 -4.83,-37.43 -14.76,-48.59 -9.83,-11.34 -27.46,-20.53 -52.82,-27.62l0 -33.97 490.7 0 0 33.97c-30.32,7.82 -45.42,23.99 -45.42,48.58 0,17.07 9.83,35.77 29.59,56.13l796.27 828.25 0 -856.75c0,-21.3 -4.83,-37.43 -14.63,-48.59 -10.14,-11.34 -27.63,-20.53 -52.99,-27.62l0 -33.97 424.18 0 0 33.97c-25.36,7.09 -42.99,16.29 -52.95,27.62 -9.83,11.17 -14.8,27.29 -14.8,48.59l0 1222.55c0,21.86 4.96,38.46 14.8,49.61 9.96,11.47 27.59,20.54 52.95,27.63l0 33.97 -454.81 0 0 -33.97c29.6,-6.32 44.36,-21.43 44.36,-45.59 0,-13.86 -17.2,-38.63 -51.88,-73.91l-808.97 -835.54z"/>
  <path class="fil1" d="M15568.69 1705.75l535.22 0c99.45,0 170.96,-13.86 214.72,-41.19 50.09,-31.82 74.98,-83.58 74.98,-155.56 0,-71.05 -24.89,-122.98 -74.98,-155.4 -42.99,-27.62 -114.67,-41.19 -214.72,-41.19l-535.22 0 0 393.34zm0 -631.45l553.19 0c84.05,0 142.31,-12.41 175.49,-37.01 37.43,-28.18 56.13,-71.81 56.13,-131.1 0,-60.65 -17.67,-103.81 -52.83,-129.64 -35.46,-25.62 -94.73,-38.63 -178.78,-38.63l-553.19 0 0 336.38zm903.24 113.17c162.24,61.38 243.25,175.03 243.25,340.56 0,131.87 -47.22,235.26 -141.67,309.93 -47.99,37.43 -103.56,64.42 -166.61,80.89 -63.09,16.43 -141.24,24.89 -234.35,24.89l-986.7 0 0 -33.79c25.37,-7.1 42.99,-16.3 52.82,-27.63 9.96,-11.17 14.81,-27.93 14.81,-49.66l0 -1221.65c0,-21.73 -4.84,-38.45 -14.81,-49.61 -9.83,-11.17 -27.45,-20.53 -52.82,-27.63l0 -33.8 977.2 0c93.84,0 169.3,7.1 226.35,21.14 57.02,14.16 107.1,38.02 150.26,71.98 85.25,66.98 127.81,163.57 127.81,289.83 0,140.94 -65.02,242.52 -195.56,304.54z"/>
  <path class="fil1" d="M18747.64 611.06l0 809.09c0,153 -28.22,267.67 -84.65,343.73 -101.41,136.87 -311.3,205.23 -629.06,205.23 -230,0 -405.92,-36.96 -527.99,-111.04 -71.09,-43.03 -120.41,-101.55 -148.04,-175.5 -26.86,-73.48 -40.12,-160.86 -40.12,-262.41l0 -809.09c0,-21.86 -5,-38.46 -14.8,-49.62 -9.97,-11.21 -27.46,-20.53 -52.95,-27.63l0 -33.79 450.7 0 0 33.79c-25.02,6.33 -42.69,15.4 -52.65,26.99 -10.09,11.64 -15.1,28.4 -15.1,50.26l0 720.21c0,83.32 4.7,144.7 13.73,184.57 9.24,39.99 26.43,73.18 51.92,100.05 67.59,71.94 183.33,107.87 346.9,107.87 164.33,0 280.2,-35.93 347.83,-107.87 24.72,-26.86 41.79,-60.06 50.85,-100.05 9.02,-39.87 13.73,-101.25 13.73,-184.57l0 -720.21c0,-21.86 -4.83,-38.46 -14.93,-49.62 -9.83,-11.21 -27.33,-20.53 -52.82,-27.63l0 -33.79 425.21 0 0 33.79c-25.36,7.1 -42.98,16.43 -52.82,27.63 -9.92,11.17 -14.93,27.76 -14.93,49.62z"/>
  <path class="fil1" d="M19775.31 1705.75l741.94 0c21.9,0 38.5,-4.96 49.78,-14.93 11.17,-9.79 20.53,-27.28 27.46,-52.82l33.84 0 0 373.32 -33.84 0c-6.93,-25.32 -16.3,-42.98 -27.46,-52.82 -11.29,-9.92 -27.88,-14.76 -49.78,-14.76l-1124.77 0 0 -33.79c25.37,-7.1 42.86,-16.3 52.82,-27.63 9.97,-11.17 14.81,-27.93 14.81,-49.66l0 -1221.65c0,-21.73 -4.83,-38.45 -14.81,-49.61 -9.96,-11.17 -27.45,-20.53 -52.82,-27.63l0 -33.8 450.45 0 0 33.8c-25.36,6.33 -42.86,15.4 -52.69,27.03 -10.09,11.6 -14.93,28.48 -14.93,50.21l0 1094.74z"/>
  <path class="fil1" d="M7397.98 4508.51l178.83 292.62 -24.47 20.23c-16.89,-13.43 -30.15,-20.23 -40.12,-20.23 -11.94,0 -39.87,14.8 -83.62,43.76 -96.54,63.22 -181.83,107.14 -255.92,131.74 -73.9,24.42 -159.32,36.66 -255.91,36.66 -193.12,0 -350.82,-51.75 -472.73,-155.27 -69.12,-59.16 -124.22,-133.41 -165.11,-222.59 -43.76,-96.4 -65.61,-200.98 -65.61,-313.83 0,-155.73 40.25,-293.21 120.71,-412.42 126.14,-186.36 319.73,-279.43 580.65,-279.43 96.53,0 182.42,12.19 257.58,36.66 74.97,24.42 160.52,68.35 256.34,131.44 43.75,29.25 71.68,43.88 83.62,43.88 9.96,0 23.23,-6.8 40.12,-20.19l24.47 21.39 -178.83 290.34 -23.23 -19.04c0.77,-9.49 1.37,-15.36 2.1,-17.62 0.59,-7.1 1.07,-12.41 1.07,-15.4 0,-38.5 -47.52,-82.09 -142.74,-130.84 -90.38,-46.46 -181.23,-69.55 -272.99,-69.55 -128.27,0 -234.05,37.85 -317.16,113.47 -95.21,84.95 -142.91,194.07 -142.91,327.3 0,133.67 47.69,243.21 142.91,328.33 83.88,74.85 189.66,112.27 317.16,112.27 100.05,0 200.1,-28.05 299.38,-84.22 77.55,-44.18 116.34,-82.98 116.34,-116.04 0,-1.49 -1.07,-12.49 -3.17,-33.19l23.23 -20.24z"/>
  <path class="fil1" d="M8100.26 4421l0 323.37 751.92 0c21.9,0 38.67,-5.6 50.25,-16.47 11.77,-10.69 21,-30.62 28.06,-59.29l29.59 0 0 392.02 -29.59 0c-6.33,-27.63 -15.53,-47.22 -27.59,-58.56 -11.94,-11.64 -28.82,-17.37 -50.72,-17.37l-1103.04 0 0 -33.03c24.77,-7.09 42.13,-17.49 52.35,-30.79 10.13,-13.43 15.28,-32.43 15.28,-56.89l0 -1085.07c0,-24.47 -4.84,-42.99 -14.81,-55.7 -9.79,-12.66 -27.46,-23.22 -52.82,-31.99l0 -33.19 1070.32 0c22.63,0 39.7,-5.56 51.28,-16.6 11.64,-10.87 21,-30.79 28.06,-59.29l28.4 0 0 392.15 -28.4 0c-7.06,-28.66 -16.43,-48.59 -28.06,-59.46 -11.59,-10.87 -28.65,-16.3 -51.28,-16.3l-719.19 0 0 291.42 446.39 0c21.86,0 38.63,-5.43 50.21,-16.6 11.64,-11.04 21.3,-30.79 29,-59.16l28.65 0 0 382.53 -28.65 0c-6.97,-28.1 -16.3,-47.56 -27.93,-58.86 -11.64,-11.34 -28.82,-16.9 -51.28,-16.9l-446.39 0z"/>
  <path class="fil1" d="M9490.02 4199.35l427.17 0c65.06,0 112.88,-7.82 143.98,-23.52 43.76,-21.43 65.66,-63.69 65.66,-126.91 0,-56 -15.4,-95.04 -46.19,-117.07 -30.63,-22.2 -84.95,-33.19 -163.45,-33.19l-427.17 0 0 300.69zm0 240.56l0 422.94c0,24.6 4.83,43.33 14.8,56.43 9.96,12.83 27.46,23.69 52.82,32.28l0 33.2 -418.75 0 0 -33.2c24.77,-7.05 42.09,-17.32 52.35,-30.75 10.14,-13.43 15.28,-32.47 15.28,-56.89l0 -1084.94c0,-24.42 -4.83,-42.99 -14.81,-55.69 -9.79,-12.67 -27.45,-23.4 -52.82,-31.99l0 -33.2 776.21 0c100.95,0 177.76,5.73 230.72,17.07 52.82,11.64 100.05,32.29 141.71,62.15 85.25,62.62 127.94,164.34 127.94,305.87 0,107.28 -26.39,191.2 -78.92,251.68 -52.35,60.4 -137.3,103.98 -254.25,130.84l224.22 349.76c40.89,64.76 73.48,108.51 97.95,131.74 24.3,23.4 51.75,38.03 82.81,44.35l0 33.2 -497.92 0 0 -33.2c36.66,-10.99 55.05,-28.65 55.05,-53.07 0,-17.24 -11.29,-43.76 -34.09,-79.22l-236.58 -379.36 -283.71 0z"/>
  <path class="fil1" d="M10981.3 4199.35l427.31 0c64.89,0 112.75,-7.82 143.81,-23.52 43.75,-21.43 65.65,-63.69 65.65,-126.91 0,-56 -15.4,-95.04 -46.19,-117.07 -30.62,-22.2 -84.95,-33.19 -163.27,-33.19l-427.31 0 0 300.69zm0 240.56l0 422.94c0,24.6 4.84,43.33 14.76,56.43 9.97,12.83 27.46,23.69 52.82,32.28l0 33.2 -418.7 0 0 -33.2c24.72,-7.05 42.09,-17.32 52.35,-30.75 10.09,-13.43 15.23,-32.47 15.23,-56.89l0 -1084.94c0,-24.42 -4.83,-42.99 -14.8,-55.69 -9.79,-12.67 -27.46,-23.4 -52.78,-31.99l0 -33.2 776.16 0c100.95,0 177.77,5.73 230.73,17.07 52.82,11.64 100.05,32.29 141.71,62.15 85.25,62.62 127.98,164.34 127.98,305.87 0,107.28 -26.26,191.2 -78.97,251.68 -52.35,60.4 -137.29,103.98 -254.24,130.84l224.21 349.76c40.89,64.76 73.48,108.51 97.96,131.74 24.29,23.4 51.75,38.03 82.85,44.35l0 33.2 -497.97 0 0 -33.2c36.66,-10.99 55.1,-28.65 55.1,-53.07 0,-17.24 -11.34,-43.76 -34.14,-79.22l-236.58 -379.36 -283.67 0z"/>
  <path class="fil1" d="M12983.44 4467.11l-194.02 -426.58 -184.7 426.58 378.72 0zm85.12 185.9l-544.72 0 -61.29 144.57c-14.94,34.87 -22.33,62.15 -22.33,81.79 0,37.85 22.62,62.02 67.75,72.28l0 33.2 -435.17 0 0 -33.2c26.86,-4.7 46.62,-13.91 59.62,-27.33 13.14,-13.43 28.49,-39.69 46.16,-79.35l432.47 -980.65c16.43,-37.13 24.3,-69.59 24.3,-97.36 0,-32.29 -19.63,-57.49 -59.16,-75.76l0 -33.02 460.07 0 0 33.02c-38.63,17.5 -58.09,44.23 -58.09,80.76 0,25.79 8.72,57.79 26.39,95.64l448.3 951.4c24.77,51.58 44.06,85.12 58.27,100.35 14.2,15.4 35.46,26.09 64.58,32.29l0 33.2 -483.93 0 0 -33.2c45.72,-8.76 68.82,-32.6 68.82,-72.11 0,-24.3 -8.89,-54.67 -26.56,-90.72l-65.48 -135.8z"/>
  <path class="fil1" d="M14687.18 4406.71l-662.09 0 0 456.01c0,24.59 4.96,43.28 14.93,56.42 9.79,12.96 27.46,23.82 52.95,32.42l0 33.2 -419.05 0 0 -33.2c24.77,-7.05 42.27,-17.32 52.53,-30.75 10.09,-13.43 15.23,-32.47 15.23,-56.89l0 -1084.94c0,-24.42 -4.79,-42.99 -14.76,-55.69 -9.97,-12.67 -27.46,-23.4 -53,-31.99l0 -33.2 419.05 0 0 33.2c-25.49,7.99 -43.16,18.26 -52.95,31.26 -9.96,13.14 -14.93,31.82 -14.93,56.12l0 387.49 662.09 0 0 -387.49c0,-24.29 -4.66,-42.86 -14.33,-55.52 -9.32,-12.54 -27.16,-23.27 -53.25,-31.86l0 -33.2 418.75 0 0 33.2c-25.37,7.99 -42.86,18.26 -52.82,31.39 -9.97,13.01 -14.81,31.69 -14.81,56.12l0 1084.04c0,24.6 4.83,43.33 14.81,56.3 9.96,12.96 27.45,23.82 52.82,32.42l0 33.2 -418.75 0 0 -33.2c24.76,-7.05 42.09,-17.32 52.22,-30.92 10.26,-13.43 15.36,-32.29 15.36,-56.89l0 -457.03z"/>
  <path class="fil1" d="M15596.84 4199.35l404.08 0c73.95,0 125.41,-7.82 154.24,-23.52 42.39,-23.1 63.52,-65.19 63.52,-126.91 0,-61.55 -21.13,-103.81 -63.52,-126.61 -28.06,-15.83 -79.69,-23.65 -154.24,-23.65l-404.08 0 0 300.69zm0 240.56l0 422.94c0,24.6 4.83,43.33 14.8,56.43 9.96,12.83 27.46,23.69 52.78,32.28l0 33.2 -418.71 0 0 -33.2c24.73,-7.05 42.09,-17.32 52.35,-30.75 10.09,-13.43 15.23,-32.47 15.23,-56.89l0 -1084.94c0,-24.42 -4.83,-42.99 -14.75,-55.69 -9.97,-12.67 -27.51,-23.4 -52.83,-31.99l0 -33.2 771.98 0c153,0 268.27,25.66 345.86,76.95 45.08,30.03 80.42,72.76 105.78,127.98 25.32,55.4 38.03,117.24 38.03,185.9 0,131.87 -40,230.12 -120.58,294.41 -80.29,64.42 -203.26,96.58 -369.09,96.58l-420.84 0z"/>
  <path class="fil1" d="M17469.91 4467.11l-194.06 -426.58 -184.7 426.58 378.76 0zm85.25 185.9l-544.89 0 -61.25 144.57c-14.8,34.87 -22.33,62.15 -22.33,81.79 0,37.85 22.63,62.02 67.88,72.28l0 33.2 -435.34 0 0 -33.2c26.86,-4.7 46.66,-13.91 59.76,-27.33 13.13,-13.43 28.52,-39.69 46.02,-79.35l432.48 -980.65c16.47,-37.13 24.46,-69.59 24.46,-97.36 0,-32.29 -19.8,-57.49 -59.15,-75.76l0 -33.02 460.06 0 0 33.02c-38.8,17.5 -58.26,44.23 -58.26,80.76 0,25.79 8.77,57.79 26.43,95.64l448.44 951.4c24.59,51.58 43.93,85.12 58.09,100.35 14.2,15.4 35.63,26.09 64.59,32.29l0 33.2 -483.76 0 0 -33.2c45.55,-8.76 68.64,-32.6 68.64,-72.11 0,-24.3 -8.89,-54.67 -26.38,-90.72l-65.49 -135.8z"/>
  <path class="fil1" d="M18557.26 5370.57c25.96,9.66 52.65,18.56 80.11,26.68 27.33,8 54.93,12.11 82.39,12.11 31.69,0 59.16,-6.49 82.25,-19.46 23.1,-12.83 34.7,-38.8 34.7,-77.59 0,-22.63 -9.03,-41.62 -27.16,-57.02 -17.97,-15.4 -37.13,-23.1 -57.49,-23.1 -17.2,0 -33.97,2.09 -49.79,6.03 -15.83,4.06 -31.69,8.59 -47.52,13.43l-45.42 -48.41 127.63 -211.26 114.85 0 -93.25 140.77 4.37 4.83c8.76,-3.16 19.63,-6.5 32.59,-9.66 13.01,-3.3 25.2,-4.83 36.66,-4.83 26.14,0 50.73,4.1 73.95,12.1 22.93,8.13 43.63,20.19 61.56,36.49 18.13,16 32.59,35.94 43.33,59.33 10.86,23.4 16.12,49.62 16.12,78.92 0,40.3 -8.59,75.28 -25.92,104.24 -17.36,29 -39.26,52.99 -65.95,71.69 -26.86,18.56 -56.29,32.29 -88.88,41.06 -32.6,9.02 -63.82,13.44 -94.31,13.44 -40.43,0 -80.42,-6.03 -120.12,-18.14 -39.82,-12.07 -78.32,-27.16 -115.86,-44.96l41.19 -106.67zm-229.53 -878.23c-3.03,9.67 -4.53,26.56 -4.53,51.03 0,16 13.43,34.22 40.17,54.45 26.68,20.36 61.25,39.4 103.94,57.07 42.73,17.79 91.32,32.72 146.24,44.95 54.93,12.07 110.27,18.1 166.86,18.1 108.05,0 187.74,-14.17 238.12,-42.39 50.73,-28.36 75.93,-69.12 75.93,-122.68 0,-28.95 -22.2,-49.66 -66.09,-61.72 -44.1,-12.07 -99.32,-21.86 -165.7,-29.13 -66.56,-7.22 -137.9,-15.4 -214.43,-24.29 -76.52,-8.9 -148.16,-25.02 -214.42,-48.59 -66.55,-23.23 -121.78,-57.32 -165.83,-101.85 -44.06,-44.52 -65.96,-105.48 -65.96,-183.19 0,-61.38 12.54,-117.24 37.73,-167.33 25.19,-50.08 60.82,-92.94 106.25,-128.58 45.42,-35.59 100.77,-63.35 165.66,-83.75 65.06,-20.06 137.17,-30.15 216.69,-30.15 73.65,0 142.14,5.13 205.83,15.7 63.52,10.39 119.81,22.33 168.87,35.16 49.02,12.84 90.21,24.73 123.58,35.17 33.06,10.56 56.89,15.7 71.38,15.7 14.46,0 26.09,-3.51 34.69,-10.87 8.6,-7.27 16.6,-15.7 23.7,-25.54l23.99 9.84 -149.53 337.23 -25.96 -14.64 0 -26.56c0,-14.63 -14.21,-29.55 -42.26,-44.95 -28.19,-15.4 -63.82,-29.25 -107.11,-41.36 -43.46,-12.07 -91.92,-22.03 -145.34,-30.32 -53.42,-8 -105.31,-12.07 -155.7,-12.07 -93.88,0 -159.67,12.07 -197.22,36.36 -37.6,24.29 -56.3,50.08 -56.3,77.72 0,27.63 12.97,48.12 39.1,61.73 25.79,13.86 59.76,23.99 101.68,30.32 41.83,6.5 89.48,11.77 142.9,16 53.42,3.93 108.35,9.96 164.64,18.09 56.3,8.17 111.21,19.34 164.47,33.97 53.59,14.5 101.12,36.06 143.21,64.29 41.66,28.35 75.75,65.48 101.84,111.51 25.84,46.15 38.8,103.94 38.8,173.53 0,53.24 -9.66,105.9 -29.12,157.66 -19.6,51.75 -52.82,98.25 -99.58,139.6 -47.1,41.19 -109.85,73.91 -188.64,98.21 -78.75,24.17 -176.39,36.24 -293.47,36.24 -91.02,0 -169.34,-4.71 -234.95,-14.34 -65.79,-9.83 -121.78,-21.6 -167.8,-35.33 -46.33,-13.73 -82.69,-26.26 -109.42,-37.56 -26.86,-11.34 -46.75,-16.9 -59.75,-16.9 -8.6,0 -16.13,3.17 -22.63,9.62 -6.5,6.37 -13.44,13.74 -20.66,21.9l-25.96 -7.39 160.39 -431.71 21.73 12.06z"/>
  <path class="fil1" d="M20417.51 4467.11l-194.07 -426.58 -184.52 426.58 378.59 0zm85.24 185.9l-544.71 0 -61.43 144.57c-14.8,34.87 -22.19,62.15 -22.19,81.79 0,37.85 22.49,62.02 67.75,72.28l0 33.2 -435.3 0 0 -33.2c26.98,-4.7 46.62,-13.91 59.75,-27.33 13.14,-13.43 28.53,-39.69 46.02,-79.35l432.61 -980.65c16.3,-37.13 24.3,-69.59 24.3,-97.36 0,-32.29 -19.77,-57.49 -59.16,-75.76l0 -33.02 460.06 0 0 33.02c-38.75,17.5 -58.26,44.23 -58.26,80.76 0,25.79 8.77,57.79 26.56,95.64l448.31 951.4c24.77,51.58 44.06,85.12 58.26,100.35 14.21,15.4 35.47,26.09 64.42,32.29l0 33.2 -483.76 0 0 -33.2c45.59,-8.76 68.69,-32.6 68.69,-72.11 0,-24.3 -8.93,-54.67 -26.43,-90.72l-65.49 -135.8z"/>
  <line class="fil2 str0" x1="6185.53" y1="2167.57" x2="20880.82" y2= "2167.57" />
  <line class="fil2 str0" x1="6185.53" y1="3312.87" x2="20880.82" y2= "3312.87" />
 </g>
</svg>
