<?xml version="1.0" encoding="UTF-8"?>
<!DOCTYPE svg PUBLIC "-//W3C//DTD SVG 1.1//EN" "http://www.w3.org/Graphics/SVG/1.1/DTD/svg11.dtd">
<!-- Creator: CorelDRAW -->
<svg xmlns="http://www.w3.org/2000/svg" xml:space="preserve" width="69.2307mm" height="16.8168mm" version="1.1" style="shape-rendering:geometricPrecision; text-rendering:geometricPrecision; image-rendering:optimizeQuality; fill-rule:evenodd; clip-rule:evenodd"
viewBox="0 0 1697.4 412.32"
 xmlns:xlink="http://www.w3.org/1999/xlink"
 xmlns:xodm="http://www.corel.com/coreldraw/odm/2003">
 <defs>
  <style type="text/css">
   <![CDATA[
    .str0 {stroke:#183765;stroke-width:0.43;stroke-miterlimit:22.9256}
    .fil1 {fill:#1C3E68}
    .fil3 {fill:#4B9D68}
    .fil2 {fill:#4D9C6A}
    .fil0 {fill:#1C3E68;fill-rule:nonzero}
   ]]>
  </style>
 </defs>
 <g id="Layer_x0020_1">
  <metadata id="CorelCorpID_0Corel-Layer"/>
  <path class="fil0 str0" d="M812.09 334.43l-112.61 -238.73 51.81 0 72.22 155.26 67.38 -155.26 50.94 0 -107.95 238.73 -21.8 0zm360.08 -29.41c-15.57,9.94 -31.48,17.47 -48,22.49 -16.43,4.93 -33.47,7.44 -51.03,7.44 -36.93,0 -66.43,-11.42 -88.48,-34.34 -22.06,-22.92 -33.04,-53.45 -33.04,-91.68 0,-34.94 10.64,-63.4 31.83,-85.2 21.19,-21.8 48.78,-32.69 82.95,-32.69 33.73,0 60.55,11.07 80.27,33.21 19.81,22.14 29.67,51.98 29.67,89.69l0 6.83 -175.41 0c1.38,22.14 8.65,39.44 21.8,51.9 13.15,12.46 30.79,18.68 52.93,18.68 14.88,0 30.36,-2.77 46.54,-8.22 16.09,-5.54 32.78,-13.84 49.99,-25l0 46.88zm-171.26 -117.46l124.03 0c-1.56,-17.13 -7.7,-30.79 -18.51,-41.08 -10.81,-10.29 -24.39,-15.48 -40.57,-15.48 -17.91,0 -32.43,4.76 -43.42,14.36 -10.98,9.51 -18.16,23.61 -21.54,42.21zm348.14 134.93c-7.26,4.07 -15.05,7.09 -23.44,9 -8.3,1.99 -17.3,2.94 -26.9,2.94 -26.29,0 -44.8,-6.23 -55.53,-18.77 -10.72,-12.54 -16.09,-35.29 -16.09,-68.42l0 -111.06 -39.96 0 0 -4.58 81.91 -90.39 5.28 0 0 54.49 73.17 0 0 40.48 -73.17 0 0 107.51c0,19.37 2.42,31.92 7.18,37.62 4.84,5.62 13.84,8.48 26.99,8.48 7.09,0 14.01,-0.95 20.76,-2.77 6.75,-1.9 13.32,-4.76 19.81,-8.65l0 44.11zm36.24 -295.81c0,-7.44 2.51,-13.75 7.61,-18.85 5.1,-5.1 11.42,-7.61 18.86,-7.61 7.44,0 13.75,2.51 18.86,7.61 5.1,5.1 7.61,11.42 7.61,18.85 0,7.44 -2.51,13.75 -7.61,18.86 -5.1,5.1 -11.42,7.61 -18.86,7.61 -7.44,0 -13.75,-2.51 -18.86,-7.61 -5.1,-5.1 -7.61,-11.42 -7.61,-18.86zm3.11 303.08l0 -234.05 46.71 0 0 234.05 -46.71 0zm107.95 0l0 -234.05 46.71 0 0 28.46c11.68,-11.07 23.27,-19.2 34.86,-24.39 11.59,-5.1 24.04,-7.7 37.37,-7.7 25.34,0 45.32,7.35 59.94,22.05 14.62,14.62 21.97,34.86 21.97,60.46l0 155.17 -46.71 0 0 -143.23c0,-18.94 -3.98,-32.95 -12.02,-41.95 -8.04,-9.08 -20.5,-13.58 -37.37,-13.58 -12.02,0 -22.49,2.33 -31.57,7 -9,4.58 -17.82,12.28 -26.47,22.92l0 168.84 -46.71 0z"/>
  <rect class="fil1" y="167.08" width="578.62" height="102.11"/>
  <polygon class="fil2" points="-0,23.96 289.31,142.56 -0,142.56 "/>
  <polygon class="fil3" points="578.62,412.32 289.31,293.71 578.62,293.71 "/>
 </g>
</svg>
